<svg width="32" height="32" viewBox="0 0 32 32" fill="none" xmlns="http://www.w3.org/2000/svg">
<path d="M26.6666 12H5.33325M9.33325 4V6.66667M22.6666 4V6.66667M21.3333 20.6667C21.3333 21.7712 20.4378 22.6667 19.3333 22.6667C18.2287 22.6667 17.3333 21.7712 17.3333 20.6667C17.3333 19.5621 18.2287 18.6667 19.3333 18.6667C20.4378 18.6667 21.3333 19.5621 21.3333 20.6667ZM7.33325 28H24.6666C25.7712 28 26.6666 27.1046 26.6666 26V8.66667C26.6666 7.5621 25.7712 6.66667 24.6666 6.66667H7.33325C6.22868 6.66667 5.33325 7.5621 5.33325 8.66667V26C5.33325 27.1046 6.22868 28 7.33325 28Z" stroke="#61DBE3" stroke-width="2" stroke-linecap="round" stroke-linejoin="round"/>
</svg>
