<svg width="26" height="20" viewBox="0 0 26 20" fill="none" xmlns="http://www.w3.org/2000/svg">
<path d="M13 2.99951V18.9998M13 2.99951L15.7333 1.63301C16.5663 1.21654 17.4849 0.999711 18.4162 0.999687L22.9999 0.999565C24.1045 0.999536 25 1.89497 25 2.99957V14.9995C25 16.1041 24.1046 16.9995 23 16.9995H18.4166C17.485 16.9995 16.5662 17.2164 15.733 17.6331L13 18.9998M13 2.99951L10.2667 1.6331C9.43369 1.21664 8.51514 0.999831 7.58379 0.999831H3C1.89543 0.999831 1 1.89526 1 2.99983V14.9998C1 16.1044 1.89543 16.9998 3 16.9998H7.58359C8.51506 16.9998 9.43374 17.2167 10.2669 17.6333L13 18.9998" stroke="#61DBE3" stroke-width="2" stroke-linecap="round" stroke-linejoin="round"/>
</svg>
