<svg width="32" height="32" viewBox="0 0 32 32" fill="none" xmlns="http://www.w3.org/2000/svg">
<rect width="32" height="32" rx="16" fill="#111F2E"/>
<path d="M8 17V21C8 22.1046 8.89543 23 10 23V23C11.1046 23 12 22.1046 12 21V19C12 17.8954 11.1046 17 10 17H8ZM8 17V14C8 9.58172 11.5817 6 16 6V6C20.4183 6 24 9.58172 24 14V17M24 17V21C24 22.1046 23.1046 23 22 23V23C20.8954 23 20 22.1046 20 21V19C20 17.8954 20.8954 17 22 17H24Z" stroke="#ffffff" stroke-width="1.4" stroke-linecap="round" stroke-linejoin="round"/>
</svg>
