<svg width="23" height="23" viewBox="0 0 23 23" fill="none" xmlns="http://www.w3.org/2000/svg">
<path d="M14.9149 11.5362C14.9149 13.5075 13.3168 15.1055 11.3455 15.1055C9.37421 15.1055 7.77615 13.5075 7.77615 11.5362C7.77615 9.56488 9.37421 7.96682 11.3455 7.96682C13.3168 7.96682 14.9149 9.56488 14.9149 11.5362ZM14.9149 11.5362V12.8747C14.9149 14.1068 15.9137 15.1055 17.1457 15.1055V15.1055C18.3778 15.1055 19.3766 14.1068 19.3766 12.8747V11.5362C19.3766 7.10075 15.7809 3.50513 11.3455 3.50513C6.91008 3.50513 3.31445 7.10075 3.31445 11.5362C3.31445 15.9716 6.91008 19.5672 11.3455 19.5672H14.9149" stroke="#13676D" stroke-width="1.24928" stroke-linecap="round" stroke-linejoin="round"/>
</svg>
