<svg width="23" height="22" viewBox="0 0 23 22" fill="none" xmlns="http://www.w3.org/2000/svg">
<path d="M14.9149 10.7349C14.9149 12.7062 13.3168 14.3043 11.3455 14.3043C9.37421 14.3043 7.77615 12.7062 7.77615 10.7349C7.77615 8.76361 9.37421 7.16555 11.3455 7.16555C13.3168 7.16555 14.9149 8.76361 14.9149 10.7349ZM14.9149 10.7349V12.0734C14.9149 13.3055 15.9137 14.3043 17.1457 14.3043V14.3043C18.3778 14.3043 19.3766 13.3055 19.3766 12.0734V10.7349C19.3766 6.29948 15.7809 2.70386 11.3455 2.70386C6.91008 2.70386 3.31445 6.29948 3.31445 10.7349C3.31445 15.1703 6.91008 18.766 11.3455 18.766H14.9149" stroke="#B0EDF1" stroke-width="1.24928" stroke-linecap="round" stroke-linejoin="round"/>
</svg>
