<svg width="25" height="24" viewBox="0 0 25 24" fill="none" xmlns="http://www.w3.org/2000/svg">
<rect x="1.25" y="0.75" width="22.5" height="22.5" rx="11.25" fill="#FFD663"/>
<path d="M10.5648 5.89133C11.14 8.03778 9.18095 10.1444 7.15003 11.9827C4.47206 11.4062 1.72219 10.5613 1.14705 8.41481C0.840606 7.27116 1.14212 5.82794 2.85444 5.36913C4.56677 4.91031 5.64025 6.34813 5.64025 6.34813C5.64025 6.34813 5.85101 4.5662 7.56333 4.10739C9.27566 3.64857 10.2961 4.88851 10.5648 5.89133Z" fill="#FF759B"/>
<path d="M14.5446 5.89133C13.9694 8.03778 15.9284 10.1444 17.9593 11.9827C20.6373 11.4062 23.3872 10.5613 23.9623 8.41481C24.2688 7.27116 23.9673 5.82794 22.2549 5.36913C20.5426 4.91031 19.4691 6.34813 19.4691 6.34813C19.4691 6.34813 19.2584 4.5662 17.546 4.10739C15.8337 3.64857 14.8133 4.88851 14.5446 5.89133Z" fill="#FF759B"/>
<circle cx="6.125" cy="14.625" r="1.875" fill="#FF759B" fill-opacity="0.2"/>
<circle cx="18.875" cy="14.625" r="1.875" fill="#FF759B" fill-opacity="0.2"/>
<path d="M12.5 18C14.1569 18 15.5 16.6569 15.5 15V12H9.5V15C9.5 16.6569 10.8431 18 12.5 18Z" fill="#810024"/>
<path fill-rule="evenodd" clip-rule="evenodd" d="M9.90234 16.5C10.4211 15.6033 11.3906 15 12.501 15C13.6114 15 14.5809 15.6033 15.0996 16.5C14.5809 17.3967 13.6114 18 12.501 18C11.3906 18 10.4211 17.3967 9.90234 16.5Z" fill="#FF759B"/>
<path d="M10.25 12H14.75V12.5C14.75 13.0523 14.3023 13.5 13.75 13.5H11.25C10.6977 13.5 10.25 13.0523 10.25 12.5V12Z" fill="white"/>
<path fill-rule="evenodd" clip-rule="evenodd" d="M1.30555 10.875C1.26881 11.245 1.25 11.6203 1.25 12C1.25 18.2132 6.2868 23.25 12.5 23.25C18.7132 23.25 23.75 18.2132 23.75 12C23.75 11.6203 23.7312 11.245 23.6945 10.875C23.13 16.56 18.3335 21 12.5 21C6.66648 21 1.86999 16.56 1.30555 10.875Z" fill="#FFD04C"/>
</svg>
