<svg width="24" height="24" viewBox="0 0 24 24" fill="none" xmlns="http://www.w3.org/2000/svg">
<path d="M2.01172 12.1229C2.01172 6.54512 6.53898 2.02344 12.1168 2.02344C17.6945 2.02344 22.2218 6.54512 22.2218 12.1229C22.2218 17.7007 17.6945 22.2223 12.1168 22.2223C6.53898 22.2223 2.01172 17.7007 2.01172 12.1229Z" fill="url(#paint0_linear_221_3320)"/>
<path d="M3.8345 12.1229C3.8345 7.55312 7.54436 3.84622 12.1168 3.84622C16.6891 3.84622 20.399 7.55312 20.399 12.1229C20.399 16.6927 16.6891 20.3996 12.1168 20.3996C7.54436 20.3996 3.8345 16.6927 3.8345 12.1229Z" stroke="white" stroke-opacity="0.2" stroke-width="3.64557"/>
<path d="M4.37109 12.2471C4.37109 7.90378 7.89641 4.38281 12.2397 4.38281C16.5831 4.38281 20.1084 7.90378 20.1084 12.2471C20.1084 16.5904 16.5831 20.1114 12.2397 20.1114C7.89641 20.1114 4.37109 16.5904 4.37109 12.2471Z" fill="url(#paint1_linear_221_3320)"/>
<defs>
<linearGradient id="paint0_linear_221_3320" x1="5.56031" y1="3.91497" x2="16.6367" y2="21.3834" gradientUnits="userSpaceOnUse">
<stop stop-color="#FFE092"/>
<stop offset="1" stop-color="#E3A302"/>
</linearGradient>
<linearGradient id="paint1_linear_221_3320" x1="7.13433" y1="5.85573" x2="15.7594" y2="19.4582" gradientUnits="userSpaceOnUse">
<stop stop-color="#FFE092"/>
<stop offset="1" stop-color="#E3A302"/>
</linearGradient>
</defs>
</svg>
