<svg width="73" height="73" viewBox="0 0 73 73" fill="none" xmlns="http://www.w3.org/2000/svg">
<g filter="url(#filter0_d_154_12244)">
<path d="M32.601 6.06197C34.7274 3.84681 38.2726 3.84681 40.399 6.06197C41.7217 7.43996 43.675 8.017 45.534 7.57817C48.5074 6.87629 51.4799 8.82862 52.0776 11.8247C52.4522 13.7026 53.7887 15.2739 55.5908 15.9214C58.4765 16.9581 59.9283 20.2044 58.8227 23.0643C58.1302 24.8558 58.4164 26.9052 59.5833 28.4307C61.4538 30.876 60.9585 34.3925 58.4747 36.2116C56.9272 37.345 56.0854 39.2328 56.2499 41.1439C56.5121 44.19 54.2104 46.9036 51.1579 47.0767C49.2491 47.185 47.5304 48.3053 46.6471 50.0009C45.2333 52.7147 41.8324 53.7361 39.1761 52.2169C37.5181 51.2686 35.4819 51.2686 33.8239 52.2169C31.1676 53.7361 27.7667 52.7147 26.3529 50.0009C25.4696 48.3053 23.7509 47.185 21.8421 47.0767C18.7896 46.9036 16.4879 44.19 16.7501 41.1439C16.9146 39.2328 16.0728 37.345 14.5253 36.2116C12.0415 34.3925 11.5462 30.876 13.4167 28.4307C14.5836 26.9052 14.8698 24.8558 14.1773 23.0643C13.0717 20.2044 14.5235 16.9581 17.4092 15.9214C19.2113 15.2739 20.5478 13.7026 20.9224 11.8247C21.5201 8.82862 24.4926 6.87629 27.466 7.57817C29.325 8.017 31.2783 7.43996 32.601 6.06197Z" fill="url(#paint0_linear_154_12244)"/>
<path d="M32.601 6.06197C34.7274 3.84681 38.2726 3.84681 40.399 6.06197C41.7217 7.43996 43.675 8.017 45.534 7.57817C48.5074 6.87629 51.4799 8.82862 52.0776 11.8247C52.4522 13.7026 53.7887 15.2739 55.5908 15.9214C58.4765 16.9581 59.9283 20.2044 58.8227 23.0643C58.1302 24.8558 58.4164 26.9052 59.5833 28.4307C61.4538 30.876 60.9585 34.3925 58.4747 36.2116C56.9272 37.345 56.0854 39.2328 56.2499 41.1439C56.5121 44.19 54.2104 46.9036 51.1579 47.0767C49.2491 47.185 47.5304 48.3053 46.6471 50.0009C45.2333 52.7147 41.8324 53.7361 39.1761 52.2169C37.5181 51.2686 35.4819 51.2686 33.8239 52.2169C31.1676 53.7361 27.7667 52.7147 26.3529 50.0009C25.4696 48.3053 23.7509 47.185 21.8421 47.0767C18.7896 46.9036 16.4879 44.19 16.7501 41.1439C16.9146 39.2328 16.0728 37.345 14.5253 36.2116C12.0415 34.3925 11.5462 30.876 13.4167 28.4307C14.5836 26.9052 14.8698 24.8558 14.1773 23.0643C13.0717 20.2044 14.5235 16.9581 17.4092 15.9214C19.2113 15.2739 20.5478 13.7026 20.9224 11.8247C21.5201 8.82862 24.4926 6.87629 27.466 7.57817C29.325 8.017 31.2783 7.43996 32.601 6.06197Z" fill="url(#paint1_linear_154_12244)" fill-opacity="0.1"/>
<path d="M18.125 28.859C18.125 18.7117 26.351 10.4857 36.4983 10.4857C46.6456 10.4857 54.8716 18.7117 54.8716 28.859V29.2368C54.8716 39.3841 46.6456 47.6101 36.4983 47.6101C26.351 47.6101 18.125 39.3841 18.125 29.2368V28.859Z" fill="black" fill-opacity="0.04"/>
<path d="M20.7587 28.859C20.7587 20.1662 27.8056 13.1194 36.4983 13.1194C45.191 13.1194 52.2379 20.1662 52.2379 28.859V29.2368C52.2379 37.9296 45.191 44.9764 36.4983 44.9764C27.8056 44.9764 20.7587 37.9296 20.7587 29.2368V28.859Z" stroke="white" stroke-opacity="0.3" stroke-width="5.26742"/>
<path opacity="0.8" d="M33.4736 32.4022L29.9457 28.838C29.7558 28.6457 29.4979 28.5376 29.229 28.5376C28.9601 28.5376 28.7022 28.6457 28.5122 28.838C28.1157 29.2386 28.1157 29.8857 28.5122 30.2863L32.7619 34.5797C33.1584 34.9803 33.7989 34.9803 34.1954 34.5797L44.9519 23.7126C45.3484 23.312 45.3484 22.6649 44.9519 22.2644C44.7619 22.072 44.5041 21.9639 44.2351 21.9639C43.9662 21.9639 43.7083 22.072 43.5184 22.2644L33.4736 32.4022Z" fill="white" stroke="#FDFDFD" stroke-width="1.05348"/>
<path d="M36.5005 12.5115C36.5005 11.4528 37.361 10.5844 38.4141 10.6932C41.7388 11.0366 44.9226 12.2703 47.6223 14.2806C50.8363 16.674 53.1926 20.0403 54.341 23.8795C55.4895 27.7186 55.3688 31.8259 53.997 35.591C52.6252 39.3562 50.0753 42.5784 46.7263 44.7789C43.3773 46.9795 39.4078 48.041 35.4074 47.8057C31.407 47.5705 27.5893 46.0511 24.5212 43.4732C21.4532 40.8953 19.2986 37.3965 18.3775 33.4965C17.6038 30.2207 17.7351 26.8087 18.7394 23.6208C19.0575 22.6111 20.1962 22.1659 21.1679 22.5861C22.1396 23.0063 22.5735 24.1329 22.2825 25.1507C21.5899 27.5729 21.5247 30.143 22.1086 32.6153C22.8401 35.7124 24.5511 38.4909 26.9875 40.538C29.4239 42.5852 32.4557 43.7918 35.6325 43.9786C38.8092 44.1654 41.9616 43.3224 44.6211 41.5749C47.2806 39.8274 49.3055 37.2686 50.3949 34.2786C51.4843 31.2886 51.5801 28.027 50.6681 24.9782C49.7561 21.9294 47.8849 19.2561 45.3326 17.3555C43.295 15.8383 40.9102 14.878 38.4121 14.5524C37.3623 14.4155 36.5005 13.5701 36.5005 12.5115Z" fill="white" fill-opacity="0.5"/>
</g>
<defs>
<filter id="filter0_d_154_12244" x="-2" y="-2" width="77" height="77" filterUnits="userSpaceOnUse" color-interpolation-filters="sRGB">
<feFlood flood-opacity="0" result="BackgroundImageFix"/>
<feColorMatrix in="SourceAlpha" type="matrix" values="0 0 0 0 0 0 0 0 0 0 0 0 0 0 0 0 0 0 127 0" result="hardAlpha"/>
<feOffset dy="8"/>
<feGaussianBlur stdDeviation="6"/>
<feComposite in2="hardAlpha" operator="out"/>
<feColorMatrix type="matrix" values="0 0 0 0 0.917647 0 0 0 0 0.690196 0 0 0 0 0.12549 0 0 0 0.4 0"/>
<feBlend mode="normal" in2="BackgroundImageFix" result="effect1_dropShadow_154_12244"/>
<feBlend mode="normal" in="SourceGraphic" in2="effect1_dropShadow_154_12244" result="shape"/>
</filter>
<linearGradient id="paint0_linear_154_12244" x1="19.306" y1="6.96344" x2="48.3763" y2="52.7845" gradientUnits="userSpaceOnUse">
<stop stop-color="#FFE092"/>
<stop offset="1" stop-color="#E3A302"/>
</linearGradient>
<linearGradient id="paint1_linear_154_12244" x1="0.898076" y1="-2.1404" x2="41.1587" y2="69.7212" gradientUnits="userSpaceOnUse">
<stop stop-color="white"/>
<stop offset="1" stop-color="white" stop-opacity="0"/>
</linearGradient>
</defs>
</svg>
