<svg id="cercle-camera" xmlns="http://www.w3.org/2000/svg" width="48" height="48" viewBox="0 0 48 48" style="background: none;">
  <g id="Ellipse_6" data-name="Ellipse 6" fill="none" stroke-width="1">
    <circle cx="24" cy="24" r="24" stroke="none"/>
    <circle cx="24" cy="24" r="23.5" fill="none"/>
  </g>
  <path id="camera-Filled_1_" d="M457.605,2854.559a2.105,2.105,0,1,1-2.105-2.118A2.118,2.118,0,0,1,457.605,2854.559Zm7.895-2.118v5.294a4.758,4.758,0,0,1-4.737,4.765H450.237a4.758,4.758,0,0,1-4.737-4.765v-5.294a4.754,4.754,0,0,1,4.453-4.754l1.326-2.012a2.642,2.642,0,0,1,2.189-1.175h4.063a2.641,2.641,0,0,1,2.189,1.175l1.326,2.012A4.754,4.754,0,0,1,465.5,2852.442Zm-5.789,2.118a4.211,4.211,0,1,0-4.211,4.235A4.222,4.222,0,0,0,459.711,2854.559Zm3.158-3.177a1.053,1.053,0,1,0-1.053,1.059A1.059,1.059,0,0,0,462.868,2851.383Z" transform="translate(-431.5 -2829.5)" fill="#274848"/>
</svg>
