<svg width="74" height="75" viewBox="0 0 74 75" fill="none" xmlns="http://www.w3.org/2000/svg">
<path d="M31.9113 5.80113C34.6874 2.90912 39.3126 2.90912 42.0887 5.80113L42.6358 6.3711C44.3643 8.17177 46.9158 8.92488 49.345 8.35144L50.1003 8.17315C53.9858 7.25598 57.8574 9.74327 58.6383 13.6583L58.8202 14.57C59.3042 16.9964 61.0242 18.9919 63.3527 19.8284L64.2031 20.134C67.9316 21.4735 69.8259 25.6203 68.3974 29.3157L68.0258 30.277C67.1401 32.5681 67.5101 35.155 69.0024 37.106L69.6241 37.9187C72.0259 41.0587 71.3787 45.5592 68.1893 47.8951L67.402 48.4717C65.415 49.927 64.3309 52.3133 64.5421 54.7673L64.6275 55.7595C64.9685 59.7212 61.9691 63.1817 57.999 63.4068L57.1713 63.4537C54.6887 63.5945 52.4636 65.032 51.3148 67.2372L50.9208 67.9936C49.0707 71.5449 44.6389 72.8457 41.163 70.8577L40.502 70.4797C38.3322 69.2387 35.6678 69.2387 33.498 70.4797L32.837 70.8577C29.3611 72.8457 24.9293 71.5449 23.0792 67.9936L22.6852 67.2372C21.5364 65.032 19.3113 63.5945 16.8287 63.4537L16.0009 63.4068C12.0309 63.1817 9.03153 59.7212 9.3725 55.7595L9.45789 54.7673C9.66909 52.3133 8.58502 49.927 6.59796 48.4717L5.81067 47.8951C2.62131 45.5592 1.97406 41.0587 4.37591 37.9187L4.99756 37.106C6.48994 35.155 6.85991 32.5681 5.97423 30.277L5.60259 29.3157C4.17406 25.6203 6.06836 21.4735 9.79691 20.134L10.6473 19.8284C12.9758 18.9919 14.6958 16.9964 15.1798 14.57L15.3617 13.6584C16.1426 9.74327 20.0142 7.25598 23.8996 8.17315L24.655 8.35144C27.0842 8.92488 29.6357 8.17178 31.3642 6.37111L31.9113 5.80113Z" fill="url(#paint0_linear_221_3488)"/>
<path d="M31.9113 5.80113C34.6874 2.90912 39.3126 2.90912 42.0887 5.80113L42.6358 6.3711C44.3643 8.17177 46.9158 8.92488 49.345 8.35144L50.1003 8.17315C53.9858 7.25598 57.8574 9.74327 58.6383 13.6583L58.8202 14.57C59.3042 16.9964 61.0242 18.9919 63.3527 19.8284L64.2031 20.134C67.9316 21.4735 69.8259 25.6203 68.3974 29.3157L68.0258 30.277C67.1401 32.5681 67.5101 35.155 69.0024 37.106L69.6241 37.9187C72.0259 41.0587 71.3787 45.5592 68.1893 47.8951L67.402 48.4717C65.415 49.927 64.3309 52.3133 64.5421 54.7673L64.6275 55.7595C64.9685 59.7212 61.9691 63.1817 57.999 63.4068L57.1713 63.4537C54.6887 63.5945 52.4636 65.032 51.3148 67.2372L50.9208 67.9936C49.0707 71.5449 44.6389 72.8457 41.163 70.8577L40.502 70.4797C38.3322 69.2387 35.6678 69.2387 33.498 70.4797L32.837 70.8577C29.3611 72.8457 24.9293 71.5449 23.0792 67.9936L22.6852 67.2372C21.5364 65.032 19.3113 63.5945 16.8287 63.4537L16.0009 63.4068C12.0309 63.1817 9.03153 59.7212 9.3725 55.7595L9.45789 54.7673C9.66909 52.3133 8.58502 49.927 6.59796 48.4717L5.81067 47.8951C2.62131 45.5592 1.97406 41.0587 4.37591 37.9187L4.99756 37.106C6.48994 35.155 6.85991 32.5681 5.97423 30.277L5.60259 29.3157C4.17406 25.6203 6.06836 21.4735 9.79691 20.134L10.6473 19.8284C12.9758 18.9919 14.6958 16.9964 15.1798 14.57L15.3617 13.6584C16.1426 9.74327 20.0142 7.25598 23.8996 8.17315L24.655 8.35144C27.0842 8.92488 29.6357 8.17178 31.3642 6.37111L31.9113 5.80113Z" fill="url(#paint1_linear_221_3488)" fill-opacity="0.1"/>
<path d="M11.3457 38.0009C11.3457 23.833 22.8311 12.3477 36.999 12.3477C51.1669 12.3477 62.6522 23.833 62.6522 38.0009V38.5285C62.6522 52.6964 51.1669 64.1818 36.999 64.1818C22.8311 64.1818 11.3457 52.6964 11.3457 38.5285V38.0009Z" fill="black" fill-opacity="0.04"/>
<path d="M13.9794 38.0009C13.9794 25.2876 24.2856 14.9814 36.999 14.9814C49.7123 14.9814 60.0185 25.2876 60.0185 38.0009V38.5285C60.0185 51.2419 49.7123 61.5481 36.999 61.5481C24.2856 61.5481 13.9794 51.2419 13.9794 38.5285V38.0009Z" stroke="white" stroke-opacity="0.3" stroke-width="5.26742"/>
<path d="M36.625 51.415C31.6445 51.415 28.2578 48.4434 27.9424 44.4756L27.9258 44.2598H31.9434L31.96 44.376C32.3086 46.3848 34.1348 47.9287 36.6582 47.9287C39.5137 47.9287 41.4893 45.9697 41.4893 43.1641V43.1309C41.4893 40.3916 39.4805 38.4326 36.6748 38.4326C35.3135 38.4326 34.1348 38.8477 33.2217 39.6113C32.7734 39.9766 32.375 40.4414 32.0928 40.9727H28.3574L29.5029 27.0439H44.2119V30.5469H32.9229L32.2588 37.7686H32.3418C33.3877 36.1582 35.3633 35.2119 37.7705 35.2119C42.3359 35.2119 45.623 38.5156 45.623 43.0645V43.0977C45.623 48.0283 41.9209 51.415 36.625 51.415Z" fill="#F5E3B5"/>
<defs>
<linearGradient id="paint0_linear_221_3488" x1="12.9933" y1="7.42977" x2="53.5819" y2="71.4064" gradientUnits="userSpaceOnUse">
<stop stop-color="#FFE092"/>
<stop offset="1" stop-color="#E3A302"/>
</linearGradient>
<linearGradient id="paint1_linear_221_3488" x1="-12.7083" y1="-5.28125" x2="43.5046" y2="95.0539" gradientUnits="userSpaceOnUse">
<stop stop-color="white"/>
<stop offset="1" stop-color="white" stop-opacity="0"/>
</linearGradient>
</defs>
</svg>
