<svg width="25" height="24" viewBox="0 0 25 24" fill="none" xmlns="http://www.w3.org/2000/svg">
<rect x="1.58203" y="0.75" width="22.5" height="22.5" rx="11.25" fill="#FFD663"/>
<path fill-rule="evenodd" clip-rule="evenodd" d="M1.63758 10.875C1.60084 11.245 1.58203 11.6203 1.58203 12C1.58203 18.2132 6.61883 23.25 12.832 23.25C19.0452 23.25 24.082 18.2132 24.082 12C24.082 11.6203 24.0632 11.245 24.0265 10.875C23.462 16.56 18.6655 21 12.832 21C6.99851 21 2.20202 16.56 1.63758 10.875Z" fill="#FFD04C"/>
<path fill-rule="evenodd" clip-rule="evenodd" d="M9.59506 17.2116C9.98802 17.3425 10.4128 17.1302 10.5437 16.7372C10.8455 15.8318 11.6589 15 12.8322 15C14.0056 15 14.8189 15.8318 15.1207 16.7372C15.2517 17.1302 15.6764 17.3425 16.0694 17.2116C16.4624 17.0806 16.6747 16.6558 16.5437 16.2629C16.0955 14.9183 14.8168 13.5 12.8322 13.5C10.8477 13.5 9.56892 14.9183 9.12072 16.2629C8.98974 16.6558 9.20211 17.0806 9.59506 17.2116Z" fill="#52565F"/>
<circle cx="9.08203" cy="9.75" r="1.5" fill="#52565F"/>
<circle cx="16.582" cy="9.75" r="1.5" fill="#52565F"/>
</svg>
